<svg xmlns="http://www.w3.org/2000/svg"  width="240.8000061035156" height="135.50882503457083" viewBox="0 0 350 196.9604965114133" class="looka-1j8o68f"><defs id="SvgjsDefs1011"></defs><g id="SvgjsG1012" featurekey="aMgJeN-0" transform="matrix(2.1057936960041275,0,0,2.1057936960041275,95.71566019156099,-36.582618705425645)" fill="#ea5455"><g xmlns="http://www.w3.org/2000/svg" fill=""><path d="M66.67 47.63h.96q.86 0 .86.86v4.41a.81.81 0 0 1-.81.81q-30.54 0-46.71.1-4.46.02-5.74-4-5.59-17.63-7.26-23.4c-.69-2.36-3.91-3.52-3.53-5.89.48-2.98 3.14-3.9 5.82-2.52 1.64.85 1.79 2.62 4.49 2.59q3.53-.05 48.3-.07 3.71 0 5.25.8 2.96 1.54 2.54 5.43-.3 2.82-4.69 20.21-.17.67.52.67m-1.68-20.82a.33.33 0 0 0-.32-.4H14.64a.33.33 0 0 0-.32.43l6.22 20.48a.33.33 0 0 0 .31.23h39.11a.33.33 0 0 0 .32-.26z"></path><path d="M21.99 31.45q-.43 1.07.84 2.69.74.96-.47.96H21.3q-1.33 0-1.72-1.27l-1.04-3.42a1.32 1.32 0 0 1 1.26-1.7h12.19a1.41 1.4 90 0 1 1.4 1.41v3.86q0 1.36-1.36 1.36h-3.24a.88.87-83.2 0 1-.85-1.08c.79-3.35-2.94-3.73-5.2-3.35q-.57.1-.75.54"></path><rect width="11.78" height="6.7" x="34.93" y="28.69" rx="1.93"></rect><path d="M60.12 28.62a1.22 1.22 0 0 1 1.23 1.21l.03 2.63a3.01 2.18 89.3 0 1-2.14 3.04l-8.84.1a3.01 2.18 89.3 0 1-2.21-2.98l-.04-2.63a1.22 1.22 0 0 1 1.21-1.23zM32.85 37.68a.93.93 0 0 1 .91.95l-.05 2.91a3.18 2.6-89 0 1-2.65 3.13l-7.16-.12a3.18 2.6-89 0 1-2.54-3.23l.05-2.91a.93.93 0 0 1 .94-.91z"></path><rect width="11.78" height="6.86" x="-5.89" y="-3.43" rx="1.96" transform="rotate(.3 -7840.503 7835.706)"></rect><path d="M58.39 37.68a.86.86 0 0 1 .86.86l.01 2.65a3.55 2.11 89.8 0 1-2.1 3.56l-6.8.02a3.55 2.11 89.8 0 1-2.12-3.54l-.01-2.65a.86.86 0 0 1 .86-.86zM33.71 67.21a10.85 10.85 0 0 1-10.85 10.85 10.85 10.85 0 0 1-10.85-10.85 10.85 10.85 0 0 1 10.85-10.85 10.85 10.85 0 0 1 10.85 10.85m-5.88.01a4.99 4.99 0 0 0-4.99-4.99 4.99 4.99 0 0 0-4.99 4.99 4.99 4.99 0 0 0 4.99 4.99 4.99 4.99 0 0 0 4.99-4.99M68.13 67.25a10.82 10.82 0 0 1-10.82 10.82 10.82 10.82 0 0 1-10.82-10.82 10.82 10.82 0 0 1 10.82-10.82 10.82 10.82 0 0 1 10.82 10.82m-5.88-.01a4.97 4.97 0 0 0-4.97-4.97 4.97 4.97 0 0 0-4.97 4.97 4.97 4.97 0 0 0 4.97 4.97 4.97 4.97 0 0 0 4.97-4.97"></path></g></g><g id="SvgjsG1013" featurekey="8L6ael-0" transform="matrix(3.272760245014707,0,0,3.272760245014707,-0.36861823563535606,131.63620033550015)" fill="#ea5455"><path d="M14.78 18.86 q0.14 0.32 -0.07 0.65 t-0.57 0.33 l-13.32 0 q-0.18 0 -0.34 -0.09 t-0.24 -0.23 q-0.22 -0.32 -0.06 -0.66 l0.62 -1.46 q0.08 -0.2 0.26 -0.32 t0.38 -0.12 l9.32 0 l-3.28 -7.84 l-2.68 6.4 q-0.08 0.2 -0.25 0.31 t-0.39 0.11 l-1.68 0 q-0.38 0 -0.6 -0.32 q-0.08 -0.14 -0.1 -0.32 t0.04 -0.34 l4.06 -9.52 q0.08 -0.2 0.25 -0.32 t0.39 -0.12 l1.92 0 q0.22 0 0.39 0.12 t0.25 0.32 z M25.067999999999998 5 q2.38 0 3.84 1.37 t1.46 3.65 t-1.44 3.64 t-3.86 1.36 l-3.82 0 l0 4.08 q0 0.28 -0.21 0.49 t-0.49 0.21 l-1.52 0 q-0.28 0 -0.49 -0.21 t-0.21 -0.49 l0 -6.2 q0 -0.28 0.21 -0.49 t0.49 -0.21 l5.92 0 q1.34 0 1.92 -0.58 q0.58 -0.52 0.58 -1.58 t-0.6 -1.63 t-1.9 -0.57 l-5.92 0 q-0.28 0 -0.49 -0.21 t-0.21 -0.49 l0 -1.44 q0 -0.28 0.21 -0.49 t0.49 -0.21 l6.04 0 z M44.756 16.96 q0.3 0 0.5 0.21 t0.2 0.51 l0 1.46 q0 0.28 -0.2 0.49 t-0.5 0.21 l-9.88 0 q-0.28 0 -0.49 -0.21 t-0.21 -0.49 l0 -1.46 q0 -0.3 0.21 -0.51 t0.49 -0.21 l9.88 0 z M34.876 13.86 q-0.28 0 -0.49 -0.21 t-0.21 -0.49 l0 -1.5 q0 -0.28 0.21 -0.49 t0.49 -0.21 l8.98 0 q0.3 0 0.51 0.21 t0.21 0.49 l0 1.5 q0 0.28 -0.21 0.49 t-0.51 0.21 l-8.98 0 z M44.756 5 q0.3 0 0.5 0.21 t0.2 0.49 l0 1.46 q0 0.3 -0.2 0.51 t-0.5 0.21 l-9.88 0 q-0.28 0 -0.49 -0.21 t-0.21 -0.51 l0 -1.46 q0 -0.28 0.21 -0.49 t0.49 -0.21 l9.88 0 z M61.904 18.82 q0.12 0.16 0.14 0.36 t-0.06 0.38 t-0.26 0.29 t-0.38 0.11 l-1.94 0 q-0.36 0 -0.58 -0.28 l-3.82 -5.06 l-3.82 5.06 q-0.22 0.28 -0.56 0.28 l-1.96 0 q-0.2 0 -0.37 -0.1 t-0.25 -0.28 q-0.2 -0.42 0.06 -0.76 l10.36 -13.54 q0.22 -0.28 0.56 -0.28 l1.94 0 q0.2 0 0.37 0.11 t0.27 0.29 t0.08 0.38 t-0.16 0.36 l-4.7 6.12 z M51.364000000000004 9.88 l-2.88 -3.74 q-0.14 -0.16 -0.16 -0.36 t0.08 -0.38 t0.27 -0.29 t0.37 -0.11 l1.94 0 q0.16 0 0.32 0.07 t0.24 0.21 l2.82 3.74 q0.28 0.34 0.08 0.76 q-0.08 0.18 -0.25 0.28 t-0.39 0.1 l-1.88 0 q-0.16 0 -0.32 -0.07 t-0.24 -0.21 z M84.52000000000001 18.86 q0.14 0.32 -0.07 0.65 t-0.57 0.33 l-13.32 0 q-0.18 0 -0.34 -0.09 t-0.24 -0.23 q-0.22 -0.32 -0.06 -0.66 l0.62 -1.46 q0.08 -0.2 0.26 -0.32 t0.38 -0.12 l9.32 0 l-3.28 -7.84 l-2.68 6.4 q-0.08 0.2 -0.25 0.31 t-0.39 0.11 l-1.68 0 q-0.38 0 -0.6 -0.32 q-0.08 -0.14 -0.1 -0.32 t0.04 -0.34 l4.06 -9.52 q0.08 -0.2 0.25 -0.32 t0.39 -0.12 l1.92 0 q0.22 0 0.39 0.12 t0.25 0.32 z M100.548 5.32 q0.22 0.3 0.08 0.66 l-5.48 13.54 q-0.08 0.2 -0.26 0.32 t-0.4 0.12 l-1.76 0 q-0.22 0 -0.4 -0.12 t-0.26 -0.32 l-5.48 -13.54 q-0.16 -0.34 0.06 -0.66 t0.58 -0.32 l6.68 0 q0.28 0 0.49 0.21 t0.21 0.51 l0 1.46 q0 0.3 -0.21 0.51 t-0.49 0.21 l-3.36 0 l3.06 7.7 l4.02 -10.16 q0.08 -0.2 0.26 -0.32 t0.4 -0.12 l1.68 0 q0.18 0 0.34 0.09 t0.24 0.23 z M106.35600000000001 10.94 q0.3 0 0.5 0.21 t0.2 0.51 l0 7.48 q0 0.28 -0.2 0.49 t-0.5 0.21 l-1.52 0 q-0.28 0 -0.49 -0.21 t-0.21 -0.49 l0 -7.48 q0 -0.3 0.21 -0.51 t0.49 -0.21 l1.52 0 z M106.35600000000001 5 q0.3 0 0.5 0.21 t0.2 0.49 l0 3.7 q0 0.3 -0.2 0.51 t-0.5 0.21 l-1.52 0 q-0.28 0 -0.49 -0.21 t-0.21 -0.51 l0 -3.7 q0 -0.28 0.21 -0.49 t0.49 -0.21 l1.52 0 z"></path></g></svg>